# xmcd CD database file
#
# Track frame offsets:
#	150
#	22436
#	45410
#	68479
#	109010
#	116514
#	151941
#	176693
#
# Disc length: 2528 seconds
#
# Revision: 0
# Processed by: cddbd v1.5.2PL0 Copyright (c) Steve Scherf et al.
# Submitted via: CDex 1.70beta3
#
DISCID=6109de08
DTITLE=Fab Bond - 3ofUS
DYEAR=2018
DGENRE=Jazz
TTITLE0=Snowy
TTITLE1=Louis's Funk
TTITLE2=TaTa Shuffle
TTITLE3=ストレス
TTITLE4=START of the END
TTITLE5=Journey ～The next life～
TTITLE6=三浦半島の夏
TTITLE7=3 of Us
EXTD=YEAR: 2018
EXTT0=
EXTT1=
EXTT2=
EXTT3=
EXTT4=
EXTT5=
EXTT6=
EXTT7=
PLAYORDER=
